HIERARCHY
ROOT Hips
{
	OFFSET -0.001795 -0.223333 0.028219
	CHANNELS 6 Xposition Yposition Zposition Zrotation Yrotation Xrotation 
	JOINT LeftUpLeg
	{
		OFFSET 0.069520 -0.091406 -0.006815
		CHANNELS 3 Zrotation Yrotation Xrotation
		JOINT LeftLeg
		{
			OFFSET 0.034277 -0.375199 -0.004496
			CHANNELS 3 Zrotation Yrotation Xrotation
			JOINT LeftFoot
			{
				OFFSET -0.013596 -0.397961 -0.043693
				CHANNELS 3 Zrotation Yrotation Xrotation
				JOINT LeftToe
				{
					OFFSET 0.026358 -0.055791 0.119288
					CHANNELS 3 Zrotation Yrotation Xrotation
					End Site
					{
						OFFSET 0.000000 0.000000 0.000000
					}
				}
			}
		}
	}
	JOINT RightUpLeg
	{
		OFFSET -0.067670 -0.090522 -0.004320
		CHANNELS 3 Zrotation Yrotation Xrotation
		JOINT RightLeg
		{
			OFFSET -0.038290 -0.382569 -0.008850
			CHANNELS 3 Zrotation Yrotation Xrotation
			JOINT RightFoot
			{
				OFFSET 0.015774 -0.398415 -0.042312
				CHANNELS 3 Zrotation Yrotation Xrotation
				JOINT RightToe
				{
					OFFSET -0.025372 -0.048144 0.123348
					CHANNELS 3 Zrotation Yrotation Xrotation
					End Site
					{
						OFFSET 0.000000 0.000000 0.000000
					}
				}
			}
		}
	}
	JOINT Spine
	{
		OFFSET -0.002533 0.108963 -0.026696
		CHANNELS 3 Zrotation Yrotation Xrotation
		JOINT Spine1
		{
			OFFSET 0.005487 0.135180 0.001092
			CHANNELS 3 Zrotation Yrotation Xrotation
			JOINT Spine2
			{
				OFFSET 0.001457 0.052922 0.025425
				CHANNELS 3 Zrotation Yrotation Xrotation
				JOINT Neck
				{
					OFFSET -0.002778 0.213870 -0.042857
					CHANNELS 3 Zrotation Yrotation Xrotation
					JOINT Head
					{
						OFFSET 0.005152 0.064970 0.051349
						CHANNELS 3 Zrotation Yrotation Xrotation
						End Site
						{
							OFFSET 0.000000 0.000000 0.000000
						}
					}
				}
				JOINT LeftShoulder
				{
					OFFSET 0.078845 0.121749 -0.034090
					CHANNELS 3 Zrotation Yrotation Xrotation
					JOINT LeftArm
					{
						OFFSET 0.090977 0.030469 -0.008868
						CHANNELS 3 Zrotation Yrotation Xrotation
						JOINT LeftForeArm
						{
							OFFSET 0.259612 -0.012772 -0.027456
							CHANNELS 3 Zrotation Yrotation Xrotation
							JOINT LeftHand
							{
								OFFSET 0.249234 0.008986 -0.001171
								CHANNELS 3 Zrotation Yrotation Xrotation
								End Site
								{
									OFFSET 0.000000 0.000000 0.000000
								}
							}
						}
					}
				}
				JOINT RightShoulder
				{
					OFFSET -0.081759 0.118833 -0.038615
					CHANNELS 3 Zrotation Yrotation Xrotation
					JOINT RightArm
					{
						OFFSET -0.096012 0.032551 -0.009143
						CHANNELS 3 Zrotation Yrotation Xrotation
						JOINT RightForeArm
						{
							OFFSET -0.253742 -0.013329 -0.021401
							CHANNELS 3 Zrotation Yrotation Xrotation
							JOINT RightHand
							{
								OFFSET -0.255298 0.007772 -0.005559
								CHANNELS 3 Zrotation Yrotation Xrotation
								End Site
								{
									OFFSET 0.000000 0.000000 0.000000
								}
							}
						}
					}
				}
			}
		}
	}
}
MOTION
Frames: 17
Frame Time: 0.050000
0.000000 0.896158 0.000000 -2.328016 -2.572793 5.606769 8.683076 -0.270321 -7.543028 -8.866755 3.692728 42.096816 8.904656 18.438153 1.529617 0.000000 0.000000 0.000000 -2.972635 2.202126 -25.936491 8.200023 -1.530007 26.888228 -7.630306 -19.039610 1.586769 0.000000 0.000000 0.000000 8.967786 -2.153859 16.348250 -3.867262 1.457156 -24.034495 -1.991000 3.272847 26.249984 9.540770 -2.352549 -34.321899 0.000000 0.000000 0.000000 -22.874261 -8.796849 3.395333 -45.267388 -9.849874 -3.819450 -12.220649 -37.784073 6.041567 0.000000 0.000000 0.000000 25.199788 -0.248561 -1.226372 49.393045 9.977656 -3.198561 13.475858 34.166836 5.750452 0.000000 0.000000 0.000000 
-0.006360 0.903420 0.031361 -2.275696 -3.662573 6.175660 10.297436 -0.142295 -12.433546 -11.814701 5.937786 45.280971 8.380418 16.953547 -9.589178 0.000000 0.000000 0.000000 -1.706655 2.259173 -23.615658 6.589360 -0.858409 25.507094 -7.121826 -17.856531 1.279304 0.000000 0.000000 0.000000 8.550478 -2.054708 16.234686 -2.245947 1.060820 -24.582929 -2.331010 5.409232 26.797938 10.403196 -2.406753 -35.195757 0.000000 0.000000 0.000000 -23.933534 -7.124836 1.916059 -45.203420 -9.188513 -3.977046 -14.113703 -37.915034 6.639411 0.000000 0.000000 0.000000 24.133949 -0.507201 -0.821293 49.024667 10.951978 -2.958766 14.707259 36.144200 6.689981 0.000000 0.000000 0.000000 
-0.010524 0.909951 0.062139 -1.552390 -3.907737 4.604479 10.957773 0.042405 -17.062583 -14.029546 6.501969 40.579267 8.491986 16.836773 -16.947932 0.000000 0.000000 0.000000 -2.013521 1.670293 -18.132139 6.196887 -0.711927 22.579836 -6.779779 -16.844140 0.443468 0.000000 0.000000 0.000000 8.328279 -2.128255 17.852152 -3.756738 1.414181 -25.533733 -0.685792 6.634820 27.638458 9.853235 -2.035886 -35.189406 0.000000 0.000000 0.000000 -24.429393 -8.070680 2.091569 -43.867002 -9.874668 -3.607393 -15.151688 -37.238317 6.726606 0.000000 0.000000 0.000000 23.091556 -1.496229 -0.965323 49.373957 12.946702 -2.381491 13.374336 34.920991 6.167500 0.000000 0.000000 0.000000 
-0.012520 0.915969 0.092558 -1.064286 -4.135784 4.847717 11.030154 0.155512 -21.694064 -12.304492 3.504856 22.333632 9.877983 20.159693 4.330060 0.000000 0.000000 0.000000 -2.933800 1.327172 -15.354713 6.798648 -0.865539 20.604649 -6.396899 -16.019829 1.184440 0.000000 0.000000 0.000000 8.256524 -2.157243 18.311484 -4.150946 1.496625 -25.984579 -1.228245 8.662474 27.940282 11.688985 -2.505681 -36.010614 0.000000 0.000000 0.000000 -23.667982 -8.421127 1.678781 -43.594693 -9.812296 -3.449808 -16.515665 -38.941872 7.349654 0.000000 0.000000 0.000000 24.186352 -1.911200 -0.641972 47.692851 15.718944 -1.542402 14.534106 36.390788 7.041004 0.000000 0.000000 0.000000 
-0.012767 0.917368 0.123036 -0.551678 -4.847618 4.542818 10.486880 0.193204 -25.388777 -6.846951 1.072474 7.530851 14.654372 22.696671 68.163154 0.000000 0.000000 0.000000 -3.519389 0.963894 -11.323494 6.451824 -0.724747 17.570678 -6.023920 -14.864349 0.038859 0.000000 0.000000 0.000000 7.090387 -2.018616 19.575670 -4.311063 1.530978 -25.777254 -0.400129 10.042391 27.808041 12.236040 -2.526268 -36.599757 0.000000 0.000000 0.000000 -23.151340 -9.055312 1.744603 -43.397004 -9.973051 -3.295887 -18.010861 -40.332093 8.065951 0.000000 0.000000 0.000000 23.239488 -1.609613 -0.157317 46.951947 17.927604 -0.740432 14.407712 37.135510 7.225381 0.000000 0.000000 0.000000 
-0.011040 0.914245 0.154024 -0.667979 -5.426492 4.820044 10.362407 0.290864 -28.301870 -2.213159 0.247831 1.373386 12.571910 22.667819 118.227495 0.000000 0.000000 0.000000 -3.924309 0.766269 -8.772577 6.682721 -0.749989 16.156818 -5.864619 -14.126165 -1.334027 0.000000 0.000000 0.000000 7.015775 -2.052100 20.303173 -4.806245 1.628431 -25.842994 0.232034 11.285863 28.080884 11.346551 -1.702783 -38.251240 0.000000 0.000000 0.000000 -23.969942 -9.749376 1.767061 -42.873906 -10.594065 -2.942720 -18.051865 -41.373598 8.210157 0.000000 0.000000 0.000000 22.990981 -0.781430 0.647974 46.366721 20.512543 0.125021 12.092209 38.232120 6.765450 0.000000 0.000000 0.000000 
-0.007541 0.907215 0.186866 -1.034103 -6.727933 4.608172 10.545821 0.506693 -29.166007 0.987409 -0.139024 0.556124 -0.336313 20.912883 108.887407 0.000000 0.000000 0.000000 -3.964649 0.581656 -6.023848 6.189413 -0.579200 15.579060 -5.696482 -12.922335 -3.721285 0.000000 0.000000 0.000000 6.984669 -2.069792 21.354168 -5.031808 1.662168 -25.870281 0.709835 12.796515 28.134557 12.085858 -1.745306 -39.442868 0.000000 0.000000 0.000000 -23.312121 -9.887017 1.631613 -43.343815 -10.712574 -2.882312 -18.069110 -42.752709 8.415326 0.000000 0.000000 0.000000 22.428496 -0.079688 1.272572 45.552125 23.344524 1.127722 11.065774 38.406072 6.465693 0.000000 0.000000 0.000000 
-0.001833 0.896490 0.223310 -1.044090 -7.849355 4.050765 10.158932 0.584337 -30.274862 1.050522 -0.385116 7.578483 -3.246090 3.767746 29.286225 0.000000 0.000000 0.000000 -4.519678 0.397573 -2.967987 5.440952 -0.367306 15.588002 -5.849424 -12.089686 -6.870801 0.000000 0.000000 0.000000 6.820495 -1.970104 21.383790 -5.649997 1.801516 -25.227546 1.264515 14.295784 28.572524 13.049325 -2.178874 -38.794299 0.000000 0.000000 0.000000 -23.279540 -11.746512 2.456625 -43.387315 -11.858336 -2.461267 -14.986196 -43.489005 7.248911 0.000000 0.000000 0.000000 22.690578 1.466505 2.463609 44.464492 26.284468 2.034854 8.518619 37.624294 5.404496 0.000000 0.000000 0.000000 
0.006233 0.885257 0.264627 -1.264978 -9.271005 3.108648 9.928265 0.736726 -31.058127 0.812561 -0.470815 15.841472 0.886410 5.146234 12.468534 0.000000 0.000000 0.000000 -5.212770 0.259586 0.316965 4.540883 -0.096949 16.325439 -5.862279 -10.987673 -8.887042 0.000000 0.000000 0.000000 5.988742 -1.722173 21.465838 -5.603874 1.777049 -25.420499 1.764965 14.640972 29.440980 13.327275 -2.477204 -38.335359 0.000000 0.000000 0.000000 -22.565567 -11.934756 2.814913 -44.240869 -12.719761 -2.363517 -13.602852 -44.027396 6.875782 0.000000 0.000000 0.000000 23.439608 3.589789 3.706276 43.393984 28.716696 2.704435 5.932520 36.271786 4.222549 0.000000 0.000000 0.000000 
0.017016 0.875794 0.310482 -1.093041 -9.599568 2.574188 9.361212 0.716068 -32.963000 -0.429001 -0.045621 25.409974 5.382589 12.292578 11.852302 0.000000 0.000000 0.000000 -6.782243 0.294993 2.349125 4.557234 0.034612 19.923751 -5.672177 -10.213726 -9.253997 0.000000 0.000000 0.000000 5.404327 -1.501880 19.972182 -6.153723 1.931224 -23.664958 1.824296 14.100022 29.351393 12.373921 -2.349359 -37.036213 0.000000 0.000000 0.000000 -21.982650 -12.996949 3.736492 -44.377138 -13.562209 -2.184830 -11.535853 -43.974549 6.135362 0.000000 0.000000 0.000000 23.933504 5.216964 4.505835 43.621766 29.096870 2.902909 4.331058 35.208572 3.496198 0.000000 0.000000 0.000000 
0.029987 0.874498 0.355734 -0.369988 -10.468501 1.425693 8.909025 0.680223 -32.714219 -2.932851 1.285400 32.348944 6.361903 13.611282 8.347686 0.000000 0.000000 0.000000 -8.780667 0.465413 2.194052 4.237851 0.556918 27.533748 -4.749296 -9.759540 -4.348401 0.000000 0.000000 0.000000 4.063980 -1.169164 19.242305 -5.713054 1.813593 -24.040767 2.065833 14.130359 31.298161 12.511943 -2.586591 -36.968497 0.000000 0.000000 0.000000 -22.068882 -13.970426 4.560521 -44.277765 -15.369390 -1.810773 -7.956026 -43.302819 4.752992 0.000000 0.000000 0.000000 24.711893 5.820437 4.890186 43.633040 29.896483 2.961755 2.436796 34.382631 2.851332 0.000000 0.000000 0.000000 
0.042360 0.881388 0.393872 0.320690 -11.535339 1.796311 8.092045 0.492739 -31.707825 -4.639007 2.350025 34.190221 7.125839 14.839308 7.814265 0.000000 0.000000 0.000000 -11.185900 0.686231 -3.409109 5.905147 0.844247 39.641277 -3.356005 -9.931663 4.397209 0.000000 0.000000 0.000000 3.215894 -0.948374 18.098790 -5.680155 1.787891 -23.518125 1.206435 13.477618 31.082932 11.858489 -2.668319 -35.674832 0.000000 0.000000 0.000000 -21.450728 -14.940030 5.587792 -43.258476 -16.241633 -1.649430 -7.176792 -43.441822 4.607986 0.000000 0.000000 0.000000 24.625577 7.391156 5.369882 45.342294 29.407281 3.222164 1.579054 34.773517 2.572526 0.000000 0.000000 0.000000 
0.052162 0.892802 0.421953 -0.066846 -11.755316 2.085997 7.208213 0.145222 -29.244395 -4.317468 2.142873 32.705602 7.362516 15.245787 7.809957 0.000000 0.000000 0.000000 -11.346992 0.743618 -9.579163 8.376434 0.400751 50.984086 -4.308574 -13.836837 12.181554 0.000000 0.000000 0.000000 3.013204 -0.945670 19.423235 -6.138055 1.897563 -23.708345 0.764668 11.251628 29.999782 11.999806 -3.027224 -35.877727 0.000000 0.000000 0.000000 -20.785153 -16.132098 6.905724 -42.599240 -18.346499 -1.009923 -4.818078 -44.402244 3.971573 0.000000 0.000000 0.000000 23.831587 8.340616 5.082537 47.746369 30.162280 4.292763 1.276319 35.973345 2.499725 0.000000 0.000000 0.000000 
0.059223 0.906251 0.440881 -1.014471 -12.438414 2.711163 6.921385 0.027963 -26.449037 -3.524896 1.648456 29.360687 7.629491 15.670941 8.693902 0.000000 0.000000 0.000000 -10.438288 0.954929 -15.245713 11.346928 -1.027041 54.227937 -8.108638 -20.673690 15.105109 0.000000 0.000000 0.000000 3.280472 -1.019184 20.948715 -5.778232 1.782846 -24.248384 -0.461505 9.641915 29.719008 12.607428 -3.617767 -35.986898 0.000000 0.000000 0.000000 -19.208577 -17.116249 7.909098 -40.903313 -20.326048 -0.553517 -2.691146 -46.504257 3.444542 0.000000 0.000000 0.000000 23.636125 9.901418 5.365719 48.374073 31.620880 5.179082 1.927439 38.109979 2.783372 0.000000 0.000000 0.000000 
0.064514 0.918101 0.453485 -1.898489 -12.972720 4.012666 6.976042 0.010962 -24.581465 -3.072750 1.272587 25.510947 7.823808 15.950748 9.930823 0.000000 0.000000 0.000000 -9.766067 1.261833 -19.611347 14.162059 -2.612435 50.501827 -10.004871 -24.004889 9.249254 0.000000 0.000000 0.000000 3.218605 -1.025398 22.118022 -5.801285 1.770810 -24.119589 -0.196724 8.529716 29.295735 11.564731 -3.135814 -36.755797 0.000000 0.000000 0.000000 -18.626674 -18.681279 9.052878 -39.386375 -23.444926 0.363557 1.791877 -47.781426 1.697350 0.000000 0.000000 0.000000 22.097859 11.511867 5.763106 49.625747 33.736814 6.574040 1.749268 40.671888 2.877606 0.000000 0.000000 0.000000 
0.068544 0.925863 0.461612 -2.906408 -12.955902 5.073812 7.316729 0.037082 -23.057615 -2.610166 0.917036 22.122682 7.814156 15.926310 10.430290 0.000000 0.000000 0.000000 -8.683166 1.591139 -22.535917 14.667839 -2.846090 43.994346 -9.698378 -23.627199 4.578398 0.000000 0.000000 0.000000 3.282121 -1.084227 23.914957 -5.098815 1.593931 -24.261654 -0.896668 7.938826 29.019705 11.965241 -3.508976 -35.939136 0.000000 0.000000 0.000000 -16.214082 -20.281761 9.669535 -38.556396 -26.780450 1.368319 6.264778 -49.542452 -0.222817 0.000000 0.000000 0.000000 21.201191 12.567509 6.146216 49.103439 36.416642 7.726737 1.694671 44.149486 3.126135 0.000000 0.000000 0.000000 
0.071555 0.929255 0.467097 -3.354947 -12.930234 6.173098 7.326792 0.023828 -22.947742 -2.319657 0.746679 20.570682 7.849539 15.976566 10.688437 0.000000 0.000000 0.000000 -8.342880 1.866509 -25.188784 13.717336 -2.371331 36.329636 -9.049739 -22.356365 2.789381 0.000000 0.000000 0.000000 3.196711 -1.088298 24.799306 -4.774507 1.511154 -23.881270 -1.012962 7.704130 28.652753 11.687312 -3.244075 -36.568486 0.000000 0.000000 0.000000 -14.804172 -21.725618 10.211349 -37.794678 -29.929594 2.329951 10.713988 -50.245928 -2.255739 0.000000 0.000000 0.000000 19.703391 13.433840 6.462445 50.626985 38.931271 9.416575 -0.549210 46.381543 2.447960 0.000000 0.000000 0.000000 
